<mxfile host="app.diagrams.net" agent="Mozilla/5.0 (Windows NT 10.0; Win64; x64) AppleWebKit/537.36 (KHTML, like Gecko) Chrome/139.0.0.0 Safari/537.36 Edg/139.0.0.0" version="28.1.0">
  <diagram name="第 1 页" id="_XM3vjgN4bQ6cUt2o9I2">
    <mxGraphModel dx="1418" dy="774" grid="1" gridSize="10" guides="1" tooltips="1" connect="1" arrows="1" fold="1" page="1" pageScale="1" pageWidth="827" pageHeight="1169" math="0" shadow="0">
      <root>
        <mxCell id="0" />
        <mxCell id="1" parent="0" />
        <mxCell id="Gvs879eCOgu5enrVMvLc-1" value="" style="verticalLabelPosition=bottom;html=1;verticalAlign=top;align=center;shape=mxgraph.floorplan.wallCorner;fillColor=strokeColor;direction=south;" parent="1" vertex="1">
          <mxGeometry x="550" y="180" width="110" height="70" as="geometry" />
        </mxCell>
        <mxCell id="Gvs879eCOgu5enrVMvLc-3" value="" style="verticalLabelPosition=bottom;html=1;verticalAlign=top;align=center;shape=mxgraph.floorplan.wallCorner;fillColor=strokeColor;direction=south;" parent="1" vertex="1">
          <mxGeometry x="729.88" y="241.25" width="30" height="108.75" as="geometry" />
        </mxCell>
        <mxCell id="BDumn9-ugRww-VhlWbHq-1" value="" style="verticalLabelPosition=bottom;html=1;verticalAlign=top;align=center;shape=mxgraph.floorplan.doorLeft;aspect=fixed;flipH=1;" parent="1" vertex="1">
          <mxGeometry x="663" y="242" width="65.88" height="70" as="geometry" />
        </mxCell>
        <mxCell id="BDumn9-ugRww-VhlWbHq-2" value="" style="verticalLabelPosition=bottom;html=1;verticalAlign=top;align=center;shape=mxgraph.floorplan.wall;direction=south;" parent="1" vertex="1">
          <mxGeometry x="749.88" y="350" width="10" height="250" as="geometry" />
        </mxCell>
        <mxCell id="BDumn9-ugRww-VhlWbHq-3" value="" style="verticalLabelPosition=bottom;html=1;verticalAlign=top;align=center;shape=mxgraph.floorplan.wallCorner;gradientColor=none;" parent="1" vertex="1">
          <mxGeometry x="530" y="180" width="20" height="50" as="geometry" />
        </mxCell>
        <mxCell id="BDumn9-ugRww-VhlWbHq-5" value="" style="verticalLabelPosition=bottom;html=1;verticalAlign=top;align=center;shape=mxgraph.floorplan.window;direction=west;rotation=90;" parent="1" vertex="1">
          <mxGeometry x="518.5" y="241.5" width="33" height="10" as="geometry" />
        </mxCell>
        <mxCell id="BDumn9-ugRww-VhlWbHq-7" value="" style="verticalLabelPosition=bottom;html=1;verticalAlign=top;align=center;shape=mxgraph.floorplan.doorSlidingGlass;dx=0.34;direction=south;" parent="1" vertex="1">
          <mxGeometry x="650" y="250" width="10" height="90" as="geometry" />
        </mxCell>
        <mxCell id="gL_sYNNBg2YiWqMNaNvk-4" value="" style="verticalLabelPosition=bottom;html=1;verticalAlign=top;align=center;shape=mxgraph.floorplan.wallCorner;fillColor=strokeColor;direction=west" vertex="1" parent="1">
          <mxGeometry x="505" y="350" width="35" height="110" as="geometry" />
        </mxCell>
        <mxCell id="gL_sYNNBg2YiWqMNaNvk-5" value="" style="verticalLabelPosition=bottom;html=1;verticalAlign=top;align=center;shape=mxgraph.floorplan.wall;" vertex="1" parent="1">
          <mxGeometry x="500" y="267" width="30" height="10" as="geometry" />
        </mxCell>
        <mxCell id="gL_sYNNBg2YiWqMNaNvk-6" value="" style="verticalLabelPosition=bottom;html=1;verticalAlign=top;align=center;shape=mxgraph.floorplan.window;" vertex="1" parent="1">
          <mxGeometry x="469" y="267" width="30" height="10" as="geometry" />
        </mxCell>
        <mxCell id="gL_sYNNBg2YiWqMNaNvk-7" value="" style="verticalLabelPosition=bottom;html=1;verticalAlign=top;align=center;shape=mxgraph.floorplan.wall;" vertex="1" parent="1">
          <mxGeometry x="399" y="267" width="70" height="10" as="geometry" />
        </mxCell>
        <mxCell id="gL_sYNNBg2YiWqMNaNvk-9" value="" style="verticalLabelPosition=bottom;html=1;verticalAlign=top;align=center;shape=mxgraph.floorplan.wallCorner;direction=north" vertex="1" parent="1">
          <mxGeometry x="260" y="260" width="50" height="17" as="geometry" />
        </mxCell>
        <mxCell id="gL_sYNNBg2YiWqMNaNvk-10" value="" style="verticalLabelPosition=bottom;html=1;verticalAlign=top;align=center;shape=mxgraph.floorplan.wall;direction=south;strokeWidth=1;fillStyle=solid;fillColor=default;" vertex="1" parent="1">
          <mxGeometry x="260" y="277" width="10" height="173" as="geometry" />
        </mxCell>
        <mxCell id="gL_sYNNBg2YiWqMNaNvk-13" value="" style="verticalLabelPosition=bottom;html=1;verticalAlign=top;align=center;shape=mxgraph.floorplan.wall;fillColor=strokeColor;" vertex="1" parent="1">
          <mxGeometry x="260" y="447" width="110" height="10" as="geometry" />
        </mxCell>
        <mxCell id="gL_sYNNBg2YiWqMNaNvk-14" value="" style="verticalLabelPosition=bottom;html=1;verticalAlign=top;align=center;shape=mxgraph.floorplan.wallCorner;direction=west" vertex="1" parent="1">
          <mxGeometry x="410" y="277" width="30" height="183" as="geometry" />
        </mxCell>
        <mxCell id="gL_sYNNBg2YiWqMNaNvk-15" value="" style="verticalLabelPosition=bottom;html=1;verticalAlign=top;align=center;shape=mxgraph.floorplan.doorRight;aspect=fixed;rotation=90;" vertex="1" parent="1">
          <mxGeometry x="373" y="408.5" width="40" height="42.5" as="geometry" />
        </mxCell>
        <mxCell id="gL_sYNNBg2YiWqMNaNvk-16" value="" style="verticalLabelPosition=bottom;html=1;verticalAlign=top;align=center;shape=mxgraph.floorplan.doorLeft;aspect=fixed;rotation=-90;" vertex="1" parent="1">
          <mxGeometry x="442.97" y="338.09" width="40.83" height="43.38" as="geometry" />
        </mxCell>
        <mxCell id="gL_sYNNBg2YiWqMNaNvk-17" value="" style="verticalLabelPosition=bottom;html=1;verticalAlign=top;align=center;shape=mxgraph.floorplan.wall;" vertex="1" parent="1">
          <mxGeometry x="492.25" y="450" width="20" height="10" as="geometry" />
        </mxCell>
        <mxCell id="gL_sYNNBg2YiWqMNaNvk-18" value="" style="verticalLabelPosition=bottom;html=1;verticalAlign=top;align=center;shape=mxgraph.floorplan.sink_double2;rotation=90;" vertex="1" parent="1">
          <mxGeometry x="486.8" y="405" width="50" height="23" as="geometry" />
        </mxCell>
        <mxCell id="gL_sYNNBg2YiWqMNaNvk-19" value="" style="verticalLabelPosition=bottom;html=1;verticalAlign=top;align=center;shape=mxgraph.floorplan.toilet;rotation=90;" vertex="1" parent="1">
          <mxGeometry x="486" y="336.5" width="32.5" height="37.5" as="geometry" />
        </mxCell>
        <mxCell id="gL_sYNNBg2YiWqMNaNvk-20" value="" style="verticalLabelPosition=bottom;html=1;verticalAlign=top;align=center;shape=mxgraph.floorplan.window;rotation=90;" vertex="1" parent="1">
          <mxGeometry x="251.25" y="241.25" width="27.5" height="10" as="geometry" />
        </mxCell>
        <mxCell id="gL_sYNNBg2YiWqMNaNvk-21" value="" style="verticalLabelPosition=bottom;html=1;verticalAlign=top;align=center;shape=mxgraph.floorplan.wall;" vertex="1" parent="1">
          <mxGeometry x="260" y="222" width="10" height="10" as="geometry" />
        </mxCell>
        <mxCell id="gL_sYNNBg2YiWqMNaNvk-22" value="" style="verticalLabelPosition=bottom;html=1;verticalAlign=top;align=center;shape=mxgraph.floorplan.wall;fillColor=strokeColor;" vertex="1" parent="1">
          <mxGeometry x="210" y="222" width="50" height="10" as="geometry" />
        </mxCell>
        <mxCell id="gL_sYNNBg2YiWqMNaNvk-24" value="" style="verticalLabelPosition=bottom;html=1;verticalAlign=top;align=center;shape=mxgraph.floorplan.window;" vertex="1" parent="1">
          <mxGeometry x="310" y="267" width="90" height="10" as="geometry" />
        </mxCell>
        <mxCell id="gL_sYNNBg2YiWqMNaNvk-26" value="" style="verticalLabelPosition=bottom;html=1;verticalAlign=top;align=center;shape=mxgraph.floorplan.wallCorner;" vertex="1" parent="1">
          <mxGeometry x="153" y="222" width="60" height="518" as="geometry" />
        </mxCell>
        <mxCell id="gL_sYNNBg2YiWqMNaNvk-27" value="" style="verticalLabelPosition=bottom;html=1;verticalAlign=top;align=center;shape=mxgraph.floorplan.wall;" vertex="1" parent="1">
          <mxGeometry x="153" y="736" width="29" height="10" as="geometry" />
        </mxCell>
        <mxCell id="gL_sYNNBg2YiWqMNaNvk-31" value="" style="verticalLabelPosition=bottom;html=1;verticalAlign=top;align=center;shape=mxgraph.floorplan.window;rotation=90;" vertex="1" parent="1">
          <mxGeometry x="149.5" y="767.5" width="55" height="10" as="geometry" />
        </mxCell>
        <mxCell id="gL_sYNNBg2YiWqMNaNvk-32" value="" style="verticalLabelPosition=bottom;html=1;verticalAlign=top;align=center;shape=mxgraph.floorplan.window;" vertex="1" parent="1">
          <mxGeometry x="181" y="790" width="149" height="10" as="geometry" />
        </mxCell>
        <mxCell id="gL_sYNNBg2YiWqMNaNvk-33" value="" style="verticalLabelPosition=bottom;html=1;verticalAlign=top;align=center;shape=mxgraph.floorplan.window;rotation=90;" vertex="1" parent="1">
          <mxGeometry x="310" y="768.5" width="50" height="12" as="geometry" />
        </mxCell>
        <mxCell id="gL_sYNNBg2YiWqMNaNvk-34" value="" style="verticalLabelPosition=bottom;html=1;verticalAlign=top;align=center;shape=mxgraph.floorplan.wall;fillColor=strokeColor;" vertex="1" parent="1">
          <mxGeometry x="358" y="739" width="41" height="10" as="geometry" />
        </mxCell>
        <mxCell id="gL_sYNNBg2YiWqMNaNvk-35" value="" style="verticalLabelPosition=bottom;html=1;verticalAlign=top;align=center;shape=mxgraph.floorplan.window;" vertex="1" parent="1">
          <mxGeometry x="410" y="830" width="300" height="10" as="geometry" />
        </mxCell>
        <mxCell id="gL_sYNNBg2YiWqMNaNvk-36" value="" style="verticalLabelPosition=bottom;html=1;verticalAlign=top;align=center;shape=mxgraph.floorplan.wall;" vertex="1" parent="1">
          <mxGeometry x="163" y="395" width="45" height="10" as="geometry" />
        </mxCell>
        <mxCell id="gL_sYNNBg2YiWqMNaNvk-37" value="" style="verticalLabelPosition=bottom;html=1;verticalAlign=top;align=center;shape=mxgraph.floorplan.wall;fillColor=strokeColor;direction=south;" vertex="1" parent="1">
          <mxGeometry x="358" y="640" width="10" height="98" as="geometry" />
        </mxCell>
        <mxCell id="gL_sYNNBg2YiWqMNaNvk-38" value="" style="verticalLabelPosition=bottom;html=1;verticalAlign=top;align=center;shape=mxgraph.floorplan.wallCorner;direction=north" vertex="1" parent="1">
          <mxGeometry x="358" y="748" width="52" height="92" as="geometry" />
        </mxCell>
        <mxCell id="gL_sYNNBg2YiWqMNaNvk-39" value="" style="verticalLabelPosition=bottom;html=1;verticalAlign=top;align=center;shape=mxgraph.floorplan.wall;" vertex="1" parent="1">
          <mxGeometry x="400" y="739" width="10" height="10" as="geometry" />
        </mxCell>
        <mxCell id="gL_sYNNBg2YiWqMNaNvk-40" value="" style="verticalLabelPosition=bottom;html=1;verticalAlign=top;align=center;shape=mxgraph.floorplan.wall;fillColor=strokeColor;direction=south;" vertex="1" parent="1">
          <mxGeometry x="526.8" y="643" width="10" height="96" as="geometry" />
        </mxCell>
        <mxCell id="gL_sYNNBg2YiWqMNaNvk-41" value="" style="verticalLabelPosition=bottom;html=1;verticalAlign=top;align=center;shape=mxgraph.floorplan.wall;fillColor=strokeColor;" vertex="1" parent="1">
          <mxGeometry x="518.5" y="739" width="41.5" height="10" as="geometry" />
        </mxCell>
        <mxCell id="gL_sYNNBg2YiWqMNaNvk-43" value="" style="verticalLabelPosition=bottom;html=1;verticalAlign=top;align=center;shape=mxgraph.floorplan.wall;fillColor=strokeColor;" vertex="1" parent="1">
          <mxGeometry x="720" y="739" width="39.88" height="10" as="geometry" />
        </mxCell>
        <mxCell id="gL_sYNNBg2YiWqMNaNvk-45" value="" style="verticalLabelPosition=bottom;html=1;verticalAlign=top;align=center;shape=mxgraph.floorplan.wall;fillColor=strokeColor;direction=south;" vertex="1" parent="1">
          <mxGeometry x="749.88" y="600" width="10" height="140" as="geometry" />
        </mxCell>
        <mxCell id="gL_sYNNBg2YiWqMNaNvk-46" value="" style="verticalLabelPosition=bottom;html=1;verticalAlign=top;align=center;shape=mxgraph.floorplan.wall;" vertex="1" parent="1">
          <mxGeometry x="700" y="739" width="20" height="10" as="geometry" />
        </mxCell>
        <mxCell id="gL_sYNNBg2YiWqMNaNvk-47" value="" style="verticalLabelPosition=bottom;html=1;verticalAlign=top;align=center;shape=mxgraph.floorplan.doorSlidingGlass;dx=0.38;" vertex="1" parent="1">
          <mxGeometry x="560" y="739" width="140" height="10" as="geometry" />
        </mxCell>
        <mxCell id="gL_sYNNBg2YiWqMNaNvk-48" value="" style="verticalLabelPosition=bottom;html=1;verticalAlign=top;align=center;shape=mxgraph.floorplan.wall;direction=south;" vertex="1" parent="1">
          <mxGeometry x="749.88" y="749" width="10" height="40" as="geometry" />
        </mxCell>
        <mxCell id="gL_sYNNBg2YiWqMNaNvk-49" value="" style="verticalLabelPosition=bottom;html=1;verticalAlign=top;align=center;shape=mxgraph.floorplan.wallU;" vertex="1" parent="1">
          <mxGeometry x="704.88" y="785" width="100" height="55" as="geometry" />
        </mxCell>
        <mxCell id="gL_sYNNBg2YiWqMNaNvk-51" value="" style="verticalLabelPosition=bottom;html=1;verticalAlign=top;align=center;shape=mxgraph.floorplan.doorSlidingGlass;dx=0.36;" vertex="1" parent="1">
          <mxGeometry x="410" y="739" width="110" height="10" as="geometry" />
        </mxCell>
        <mxCell id="gL_sYNNBg2YiWqMNaNvk-52" value="" style="verticalLabelPosition=bottom;html=1;verticalAlign=top;align=center;shape=mxgraph.floorplan.wall;direction=south;" vertex="1" parent="1">
          <mxGeometry x="358" y="519" width="10" height="120" as="geometry" />
        </mxCell>
        <mxCell id="gL_sYNNBg2YiWqMNaNvk-53" value="" style="verticalLabelPosition=bottom;html=1;verticalAlign=top;align=center;shape=mxgraph.floorplan.wallCorner;direction=south;" vertex="1" parent="1">
          <mxGeometry x="420" y="521" width="117" height="121" as="geometry" />
        </mxCell>
        <mxCell id="gL_sYNNBg2YiWqMNaNvk-55" value="" style="verticalLabelPosition=bottom;html=1;verticalAlign=top;align=center;shape=mxgraph.floorplan.doorRight;aspect=fixed;rotation=-90;" vertex="1" parent="1">
          <mxGeometry x="370" y="520.01" width="47" height="49.94" as="geometry" />
        </mxCell>
        <mxCell id="gL_sYNNBg2YiWqMNaNvk-56" value="" style="verticalLabelPosition=bottom;html=1;verticalAlign=top;align=center;shape=mxgraph.floorplan.doorRight;aspect=fixed;" vertex="1" parent="1">
          <mxGeometry x="309" y="458" width="56.47" height="60" as="geometry" />
        </mxCell>
        <mxCell id="gL_sYNNBg2YiWqMNaNvk-57" value="" style="verticalLabelPosition=bottom;html=1;verticalAlign=top;align=center;shape=mxgraph.floorplan.doorRight;aspect=fixed;rotation=90;" vertex="1" parent="1">
          <mxGeometry x="211.25" y="356.04" width="47.03" height="49.96" as="geometry" />
        </mxCell>
        <mxCell id="gL_sYNNBg2YiWqMNaNvk-58" value="" style="verticalLabelPosition=bottom;html=1;verticalAlign=top;align=center;shape=mxgraph.floorplan.toilet;rotation=-90;" vertex="1" parent="1">
          <mxGeometry x="170" y="300" width="40" height="50" as="geometry" />
        </mxCell>
        <mxCell id="gL_sYNNBg2YiWqMNaNvk-59" value="" style="verticalLabelPosition=bottom;html=1;verticalAlign=top;align=center;shape=mxgraph.floorplan.wall;direction=south;" vertex="1" parent="1">
          <mxGeometry x="530" y="251.5" width="10" height="100" as="geometry" />
        </mxCell>
        <mxCell id="gL_sYNNBg2YiWqMNaNvk-60" value="" style="verticalLabelPosition=bottom;html=1;verticalAlign=top;align=center;shape=mxgraph.floorplan.wall;fillColor=#e51400;fontColor=#ffffff;strokeColor=#B20000;" vertex="1" parent="1">
          <mxGeometry x="540" y="341.5" width="120" height="10" as="geometry" />
        </mxCell>
        <mxCell id="gL_sYNNBg2YiWqMNaNvk-61" value="" style="verticalLabelPosition=bottom;html=1;verticalAlign=top;align=center;shape=mxgraph.floorplan.wall;" vertex="1" parent="1">
          <mxGeometry x="330" y="739" width="28" height="10" as="geometry" />
        </mxCell>
        <mxCell id="gL_sYNNBg2YiWqMNaNvk-62" value="" style="verticalLabelPosition=bottom;html=1;verticalAlign=top;align=center;shape=mxgraph.floorplan.bed_double;rotation=-90;" vertex="1" parent="1">
          <mxGeometry x="163" y="540" width="122" height="120" as="geometry" />
        </mxCell>
      </root>
    </mxGraphModel>
  </diagram>
</mxfile>
